<?xml version="1.0" standalone="no"?>
<!DOCTYPE svg PUBLIC "-//W3C//DTD SVG 20010904//EN"
 "http://www.w3.org/TR/2001/REC-SVG-20010904/DTD/svg10.dtd">
<svg version="1.0" xmlns="http://www.w3.org/2000/svg"
 width="1000.000000pt" height="1000.000000pt" viewBox="0 0 1000.000000 1000.000000"
 preserveAspectRatio="xMidYMid meet">
<metadata>
Created by potrace 1.11, written by Peter Selinger 2001-2013
</metadata>
<g transform="translate(0.000000,1000.000000) scale(0.100000,-0.100000)"
fill="#000000" stroke="none">
<path d="M1810 9975 c-550 -76 -1048 -365 -1381 -800 -177 -231 -319 -533
-379 -810 -51 -236 -49 -111 -50 -3361 0 -2037 3 -3066 10 -3135 56 -551 330
-1061 757 -1411 248 -202 570 -356 893 -426 l125 -27 3215 0 3215 0 125 27
c897 194 1558 931 1650 1837 14 144 14 6114 -1 6249 -27 255 -90 474 -199 697
-211 434 -530 753 -963 966 -214 105 -435 169 -677 199 -56 7 -1115 10 -3165
9 -2486 -1 -3098 -4 -3175 -14z m5709 -2560 c130 -34 259 -133 314 -240 13
-28 410 -929 881 -2003 839 -1912 886 -2023 886 -2117 0 -53 -29 -168 -56
-223 -32 -65 -118 -160 -184 -202 -141 -90 -333 -100 -488 -24 -69 34 -168
127 -208 195 -17 30 -301 669 -630 1421 -329 752 -602 1364 -605 1360 -3 -4
-237 -623 -518 -1377 -293 -782 -525 -1390 -543 -1417 -40 -64 -136 -150 -200
-182 -75 -37 -189 -59 -262 -51 -136 15 -237 66 -330 165 -101 109 -149 259
-128 397 9 53 206 593 748 2040 405 1082 748 1991 761 2018 53 103 185 206
310 240 65 18 186 18 252 0z m-4339 -20 c684 -104 1286 -485 1670 -1058 94
-140 145 -237 165 -313 52 -199 -30 -422 -198 -538 -169 -116 -406 -116 -575
0 -66 46 -105 93 -178 215 -171 285 -406 490 -696 608 -200 81 -346 106 -591
98 -149 -4 -188 -9 -289 -35 -133 -35 -256 -85 -374 -152 -346 -198 -599 -555
-681 -958 -14 -66 -18 -133 -17 -277 0 -168 3 -203 26 -301 140 -597 615
-1029 1214 -1105 119 -15 340 -7 449 16 387 80 699 292 920 623 95 143 154
204 240 246 208 101 432 62 589 -104 98 -105 138 -205 137 -350 0 -101 -28
-185 -98 -299 -233 -375 -582 -695 -968 -888 -192 -97 -453 -182 -677 -223
-768 -138 -1575 117 -2133 675 -378 378 -614 856 -691 1400 -21 147 -24 468
-5 605 114 835 605 1528 1336 1886 278 135 555 213 890 248 85 9 434 -4 535
-19z"/>
</g>
</svg>
