<svg xmlns="http://www.w3.org/2000/svg"><symbol id="facebook" viewBox="0 0 16 16"><path d="M15.1 0H.9C.4 0 0 .4 0 .9v14.2c0 .5.4.9.9.9h7.7V9.8H6.5V7.4h2.1V5.6c0-2.1 1.3-3.2 3.1-3.2.9 0 1.6.1 1.9.1v2.2h-1.3c-1 0-1.2.5-1.2 1.2v1.5h2.4l-.3 2.4H11V16h4.1c.5 0 .9-.4.9-.9V.9c0-.5-.4-.9-.9-.9"/></symbol><symbol id="volume-x" viewBox="0 0 24 24"><path d="M11 20c-.2 0-.4-.1-.6-.2L5.6 16H2c-.6 0-1-.4-1-1V9c0-.6.4-1 1-1h3.6l4.7-3.8c.3-.2.7-.3 1.1-.1.4.2.6.5.6.9v14c0 .4-.2.7-.6.9-.1.1-.3.1-.4.1zm-8-6h3c.2 0 .4.1.6.2l3.4 2.7V7.1L6.6 9.8c-.2.1-.4.2-.6.2H3v4zm20 2c-.3 0-.5-.1-.7-.3L20 13.4l-2.3 2.3c-.4.4-1 .4-1.4 0s-.4-1 0-1.4l2.3-2.3-2.3-2.3c-.4-.4-.4-1 0-1.4s1-.4 1.4 0l2.3 2.3 2.3-2.3c.4-.4 1-.4 1.4 0s.4 1 0 1.4L21.4 12l2.3 2.3c.4.4.4 1 0 1.4-.2.2-.4.3-.7.3z"/></symbol><symbol id="pause-circle" viewBox="0 0 24 24"><path d="M12 23C5.9 23 1 18.1 1 12S5.9 1 12 1s11 4.9 11 11-4.9 11-11 11zm0-20c-5 0-9 4-9 9s4 9 9 9 9-4 9-9-4-9-9-9z"/><path d="M14 16c-.6 0-1-.4-1-1V9c0-.6.4-1 1-1s1 .4 1 1v6c0 .6-.4 1-1 1zm-4 0c-.6 0-1-.4-1-1V9c0-.6.4-1 1-1s1 .4 1 1v6c0 .6-.4 1-1 1z"/></symbol><symbol id="github" viewBox="0 0 16 16"><path d="M8 0C3.6 0 0 3.6 0 8c0 3.5 2.3 6.5 5.5 7.6.4.1.5-.2.5-.4v-1.4c-2.2.5-2.7-1.1-2.7-1.1-.4-.9-.9-1.2-.9-1.2-.7-.5.1-.5.1-.5.8.1 1.2.8 1.2.8.7 1.2 1.9.9 2.3.7.1-.5.3-.9.5-1.1-1.8-.2-3.6-.9-3.6-4 0-.9.3-1.6.8-2.1-.1-.2-.4-1 .1-2.1 0 0 .7-.2 2.2.8.6 0 1.3-.1 2-.1s1.4.1 2 .3c1.5-1 2.2-.8 2.2-.8.4 1.1.2 1.9.1 2.1.5.6.8 1.3.8 2.1 0 3.1-1.9 3.8-3.6 3.9.2.3.5.8.5 1.5v2.2c0 .2.1.5.6.4 3.2-1 5.5-4 5.5-7.6C16 3.6 12.4 0 8 0"/></symbol><symbol id="logo" viewBox="0 0 400 212.2"><path d="M113.1 203.2c-17 0-33.8-4.5-48.9-13.4-46.2-27-61.7-86.5-34.7-132.7 13.1-22.4 34.1-38.3 59.2-44.8s51.2-2.9 73.6 10.2c15.5 9.2 28.2 22.3 36.5 38.1 5.2 9.7 1.5 21.9-8.2 27.1-9.7 5.2-21.9 1.5-27.1-8.2-4.9-9.2-12.4-17-21.5-22.4-13.1-7.7-28.4-9.8-43.2-5.9C84.1 55 71.7 64.4 64 77.5c-15.9 27.1-6.8 62.1 20.4 78 27.1 15.9 62.1 6.8 78-20.4 5.6-9.5 17.8-12.7 27.4-7.1 9.5 5.6 12.7 17.8 7.1 27.4-13.1 22.4-34.1 38.3-59.2 44.8-8.1 2-16.4 3-24.6 3zm124.7.4c-2.3 0-4.7-.4-7-1.3-10.3-3.9-15.6-15.4-11.7-25.7l58-155c2.9-7.6 10-12.8 18.2-13 8.1-.2 15.6 4.5 18.9 12l68 155c4.4 10.1-.2 21.9-10.3 26.4-10.1 4.4-21.9-.2-26.4-10.3l-48.2-110-40.7 108.9c-3.1 8-10.7 13-18.8 13z"/></symbol><symbol id="twitter" viewBox="0 0 16 16"><path d="M16 3c-.6.3-1.2.4-1.9.5.7-.4 1.2-1 1.4-1.8-.6.4-1.3.6-2.1.8-.6-.6-1.4-1-2.4-1-1.7 0-3.2 1.5-3.2 3.3 0 .3 0 .5.1.8-2.7-.2-5.2-1.5-6.8-3.5-.3.5-.4 1-.4 1.7 0 1.1.6 2.1 1.5 2.7-.5 0-1-.2-1.5-.4C.7 7.7 1.8 9 3.3 9.3c-.3.1-.6.1-.9.1-.2 0-.4 0-.6-.1.4 1.3 1.6 2.3 3.1 2.3-1.1.9-2.5 1.4-4.1 1.4H0c1.5.9 3.2 1.5 5 1.5 6 0 9.3-5 9.3-9.3v-.4C15 4.3 15.6 3.7 16 3z"/></symbol><symbol id="play-circle" viewBox="0 0 24 24"><path d="M12 23C5.9 23 1 18.1 1 12S5.9 1 12 1s11 4.9 11 11-4.9 11-11 11zm0-20c-5 0-9 4-9 9s4 9 9 9 9-4 9-9-4-9-9-9z"/><path d="M10 17c-.2 0-.3 0-.5-.1-.3-.2-.5-.5-.5-.9V8c0-.4.2-.7.5-.9.3-.2.7-.2 1 0l6 4c.3.2.4.5.4.8s-.2.6-.4.8l-6 4c-.1.2-.3.3-.5.3zm1-7.1v4.3l3.2-2.1L11 9.9z"/></symbol><symbol id="volume-2" viewBox="0 0 24 24"><path d="M11 20c-.2 0-.4-.1-.6-.2L5.6 16H2c-.6 0-1-.4-1-1V9c0-.6.4-1 1-1h3.6l4.7-3.8c.3-.2.7-.3 1.1-.1.4.2.6.5.6.9v14c0 .4-.2.7-.6.9-.1.1-.3.1-.4.1zm-8-6h3c.2 0 .4.1.6.2l3.4 2.7V7.1L6.6 9.8c-.2.1-.4.2-.6.2H3v4zm16.1 6c-.3 0-.5-.1-.7-.3-.4-.4-.4-1 0-1.4 1.7-1.7 2.6-4 2.6-6.3 0-2.4-.9-4.6-2.6-6.3-.4-.4-.4-1 0-1.4s1-.4 1.4 0c2.1 2 3.2 4.7 3.2 7.6s-1.1 5.7-3.2 7.8c-.2.2-.4.3-.7.3zm-3.6-3.4c-.3 0-.5-.1-.7-.3-.4-.4-.4-1 0-1.4 1.6-1.6 1.6-4.1 0-5.7-.4-.4-.4-1 0-1.4s1-.4 1.4 0c2.4 2.4 2.4 6.1 0 8.5-.2.2-.4.3-.7.3z"/></symbol></svg>