<svg xmlns="http://www.w3.org/2000/svg"><symbol id="pause-circle" viewBox="0 0 24 24"><style>.st0{fill:none;stroke:#fff;stroke-width:2;stroke-linecap:round;stroke-linejoin:round}</style><circle cx="12" cy="12" r="10" class="st0"/><path d="M10 15V9m4 6V9" class="st0"/></symbol><symbol id="play-circle" viewBox="0 0 24 24"><style>.st0{fill:none;stroke:#fff;stroke-width:2;stroke-linecap:round;stroke-linejoin:round}</style><circle cx="12" cy="12" r="10" class="st0"/><path d="M10 8l6 4-6 4z" class="st0"/></symbol><symbol id="volume-2" viewBox="0 0 24 24"><style>.st0{fill:none;stroke:#fff;stroke-width:2;stroke-linecap:round;stroke-linejoin:round}</style><path d="M11 5L6 9H2v6h4l5 4zm8.1-.1C23 8.8 23 15.1 19.1 19M15.5 8.5c2 2 2 5.1 0 7.1" class="st0"/></symbol><symbol id="twitter" viewBox="0 0 16 16"><style>.st0{fill:#fff}</style><path d="M16 3c-.6.3-1.2.4-1.9.5.7-.4 1.2-1 1.4-1.8-.6.4-1.3.6-2.1.8-.6-.6-1.4-1-2.4-1-1.7 0-3.2 1.5-3.2 3.3 0 .3 0 .5.1.8-2.7-.2-5.2-1.5-6.8-3.5-.3.5-.4 1-.4 1.7 0 1.1.6 2.1 1.5 2.7-.5 0-1-.2-1.5-.4C.7 7.7 1.8 9 3.3 9.3c-.3.1-.6.1-.9.1-.2 0-.4 0-.6-.1.4 1.3 1.6 2.3 3.1 2.3-1.1.9-2.5 1.4-4.1 1.4H0c1.5.9 3.2 1.5 5 1.5 6 0 9.3-5 9.3-9.3v-.4C15 4.3 15.6 3.7 16 3z" class="st0"/></symbol><symbol id="volume-x" viewBox="0 0 24 24"><style>.st0{fill:none;stroke:#fff;stroke-width:2;stroke-linecap:round;stroke-linejoin:round}</style><path d="M11 5L6 9H2v6h4l5 4zm12 4l-6 6m0-6l6 6" class="st0"/></symbol><symbol id="github" viewBox="0 0 16 16"><style>.st0{fill:#fff}</style><path d="M8 0C3.6 0 0 3.6 0 8c0 3.5 2.3 6.5 5.5 7.6.4.1.5-.2.5-.4v-1.4c-2.2.5-2.7-1.1-2.7-1.1-.4-.9-.9-1.2-.9-1.2-.7-.5.1-.5.1-.5.8.1 1.2.8 1.2.8.7 1.2 1.9.9 2.3.7.1-.5.3-.9.5-1.1-1.8-.2-3.6-.9-3.6-4 0-.9.3-1.6.8-2.1-.1-.2-.4-1 .1-2.1 0 0 .7-.2 2.2.8.6 0 1.3-.1 2-.1s1.4.1 2 .3c1.5-1 2.2-.8 2.2-.8.4 1.1.2 1.9.1 2.1.5.6.8 1.3.8 2.1 0 3.1-1.9 3.8-3.6 3.9.2.3.5.8.5 1.5v2.2c0 .2.1.5.6.4 3.2-1 5.5-4 5.5-7.6C16 3.6 12.4 0 8 0" class="st0"/></symbol><symbol id="logo" viewBox="0 0 400 212.2"><style>.st0{stroke:#fff}.st0,.st1,.st2,.st3{fill:none;stroke-width:40;stroke-linecap:round;stroke-miterlimit:10}.st1{stroke-linejoin:round;stroke:#fff}.st2,.st3{stroke:#161414}.st3{stroke-linejoin:round}.st4{fill:#fff}.st5{fill:#acff00}.st6{fill:#8f23a6}.st7,.st8{fill:none;stroke:#000;stroke-width:40;stroke-linecap:round;stroke-miterlimit:10}.st8{stroke-linejoin:round}</style><g id="Layer_1"><path d="M179.7 145.1c-21.5 36.7-68.7 49-105.4 27.5s-49-68.7-27.5-105.4 68.7-49 105.4-27.5c12.7 7.5 22.5 18 29 30.2" class="st0"/><path d="M237.8 183.6l58-155 68 155" class="st1"/></g></symbol><symbol id="facebook" viewBox="0 0 16 16"><style>.st0{fill:#fff}</style><path d="M15.1 0H.9C.4 0 0 .4 0 .9v14.2c0 .5.4.9.9.9h7.7V9.8H6.5V7.4h2.1V5.6c0-2.1 1.3-3.2 3.1-3.2.9 0 1.6.1 1.9.1v2.2h-1.3c-1 0-1.2.5-1.2 1.2v1.5h2.4l-.3 2.4H11V16h4.1c.5 0 .9-.4.9-.9V.9c0-.5-.4-.9-.9-.9" class="st0"/></symbol></svg>